# xmcd
#
# Track frame offsets: 
#        150
#        16100
#        42062
#        60425
#        79950
#        101025
#        124375
#        143037
#        166105
#        187175
#
# Disc length: 2793 seconds
#
# Revision: 0
# Processed by: cddbd v1.5.1PL0 Copyright (c) Steve Scherf et al.
# Submitted via: ExactAudioCopy v0.95a5
#
DISCID=7f0ae70a
DTITLE=All-4-One - All-4-One
DYEAR=1900
DGENRE=Soul
TTITLE0=So Much In Love 
TTITLE1=Oh Girl
TTITLE2=A Better Man
TTITLE3=I Swear
TTITLE4=Down To The Last Drop 
TTITLE5=Without You
TTITLE6=(She's Got) Skillz
TTITLE7=Something About You
TTITLE8=The Bomb
TTITLE9=Here If You're Ready 
EXTD=
EXTT0=
EXTT1=
EXTT2=
EXTT3=
EXTT4=
EXTT5=
EXTT6=
EXTT7=
EXTT8=
EXTT9=
PLAYORDER=
